<svg width="208" height="210" viewBox="0 0 208 210" fill="none" xmlns="http://www.w3.org/2000/svg">
<path fill-rule="evenodd" clip-rule="evenodd" d="M208 104.958C208 88.9407 204.414 73.7612 198 60.1785V149.737C204.414 136.155 208 120.975 208 104.958ZM180 33.5709C183.642 37.4973 186.987 41.7026 190 46.1514V163.765C186.987 168.213 183.642 172.419 180 176.345V33.5709ZM172 25.8104C168.829 23.0435 165.49 20.464 162 18.0892V191.827C165.49 189.452 168.829 186.872 172 184.105V25.8104ZM144 8.2641C147.431 9.72058 150.768 11.3542 154 13.1537V196.762C150.768 198.562 147.431 200.195 144 201.652V8.2641ZM136 5.24847C132.735 4.1684 129.398 3.2442 126 2.48474V207.431C129.398 206.672 132.735 205.747 136 204.667V5.24847ZM108 0.0748901C111.378 0.233215 114.713 0.551147 118 1.02124V208.895C114.713 209.365 111.378 209.683 108 209.841V0.0748901ZM100 0C96.6244 0.0947266 93.2886 0.348694 90 0.754822V209.161C93.2886 209.567 96.6244 209.821 100 209.916V0ZM72 4.60919C75.2681 3.60077 78.6043 2.74762 82 2.05835V207.858C78.6043 207.168 75.2681 206.315 72 205.307V4.60919ZM64 7.43939C60.5739 8.81085 57.2368 10.3576 54 12.0686V197.847C57.2368 199.558 60.5739 201.105 64 202.477V7.43939ZM36 24.1088C39.1805 21.4702 42.5193 19.0156 46 16.7614V193.154C42.5193 190.9 39.1805 188.446 36 185.807V24.1088ZM28 31.4732C24.3862 35.1611 21.0422 39.1144 18 43.3011V166.615C21.0422 170.802 24.3862 174.755 28 178.443V31.4732ZM0 84.4587C1.98218 74.4429 5.38879 64.9393 10 56.1678V153.748C5.38879 144.977 1.98218 135.473 0 125.457V84.4587Z" fill="#0E3E30"/>
</svg>
